<mxfile host="app.diagrams.net" agent="Mozilla/5.0 (Windows NT 10.0; Win64; x64) AppleWebKit/537.36 (KHTML, like Gecko) Chrome/134.0.0.0 Safari/537.36" version="26.2.9">
  <diagram name="Page-1" id="pG92UOis5DG1-28vQlEu">
    <mxGraphModel dx="1366" dy="669" grid="1" gridSize="10" guides="1" tooltips="1" connect="1" arrows="1" fold="1" page="1" pageScale="1" pageWidth="850" pageHeight="1100" math="0" shadow="0">
      <root>
        <mxCell id="0" />
        <mxCell id="1" parent="0" />
        <mxCell id="1EWZiz0vZpaTnw2dbrHK-3" value="W&lt;div&gt;e&lt;/div&gt;&lt;div&gt;b&lt;/div&gt;&lt;div&gt;&lt;br&gt;&lt;/div&gt;&lt;div&gt;A&lt;/div&gt;&lt;div&gt;p&lt;/div&gt;&lt;div&gt;p&lt;/div&gt;&lt;div&gt;l&lt;/div&gt;&lt;div&gt;i&lt;/div&gt;&lt;div&gt;c&lt;/div&gt;&lt;div&gt;a&lt;/div&gt;&lt;div&gt;t&lt;/div&gt;&lt;div&gt;i&lt;/div&gt;&lt;div&gt;o&lt;/div&gt;&lt;div&gt;n&lt;/div&gt;" style="rounded=0;whiteSpace=wrap;html=1;fontSize=14;fontStyle=1" vertex="1" parent="1">
          <mxGeometry x="120" y="320" width="80" height="390" as="geometry" />
        </mxCell>
        <mxCell id="1EWZiz0vZpaTnw2dbrHK-55" value="" style="edgeStyle=none;rounded=0;orthogonalLoop=1;jettySize=auto;html=1;" edge="1" parent="1" source="1EWZiz0vZpaTnw2dbrHK-5" target="1EWZiz0vZpaTnw2dbrHK-49">
          <mxGeometry relative="1" as="geometry" />
        </mxCell>
        <mxCell id="1EWZiz0vZpaTnw2dbrHK-5" value="MySQL" style="shape=cylinder3;whiteSpace=wrap;html=1;boundedLbl=1;backgroundOutline=1;size=15;" vertex="1" parent="1">
          <mxGeometry x="620" y="940" width="60" height="80" as="geometry" />
        </mxCell>
        <mxCell id="1EWZiz0vZpaTnw2dbrHK-54" value="" style="edgeStyle=none;rounded=0;orthogonalLoop=1;jettySize=auto;html=1;" edge="1" parent="1" source="1EWZiz0vZpaTnw2dbrHK-6" target="1EWZiz0vZpaTnw2dbrHK-49">
          <mxGeometry relative="1" as="geometry" />
        </mxCell>
        <mxCell id="1EWZiz0vZpaTnw2dbrHK-6" value="MySQL" style="shape=cylinder3;whiteSpace=wrap;html=1;boundedLbl=1;backgroundOutline=1;size=15;" vertex="1" parent="1">
          <mxGeometry x="620" y="770" width="60" height="80" as="geometry" />
        </mxCell>
        <mxCell id="1EWZiz0vZpaTnw2dbrHK-53" value="" style="edgeStyle=none;rounded=0;orthogonalLoop=1;jettySize=auto;html=1;" edge="1" parent="1" source="1EWZiz0vZpaTnw2dbrHK-7" target="1EWZiz0vZpaTnw2dbrHK-49">
          <mxGeometry relative="1" as="geometry" />
        </mxCell>
        <mxCell id="1EWZiz0vZpaTnw2dbrHK-7" value="MySQL" style="shape=cylinder3;whiteSpace=wrap;html=1;boundedLbl=1;backgroundOutline=1;size=15;" vertex="1" parent="1">
          <mxGeometry x="620" y="600" width="60" height="80" as="geometry" />
        </mxCell>
        <mxCell id="1EWZiz0vZpaTnw2dbrHK-52" value="" style="edgeStyle=none;rounded=0;orthogonalLoop=1;jettySize=auto;html=1;" edge="1" parent="1" source="1EWZiz0vZpaTnw2dbrHK-8" target="1EWZiz0vZpaTnw2dbrHK-49">
          <mxGeometry relative="1" as="geometry" />
        </mxCell>
        <mxCell id="1EWZiz0vZpaTnw2dbrHK-8" value="MySQL" style="shape=cylinder3;whiteSpace=wrap;html=1;boundedLbl=1;backgroundOutline=1;size=15;" vertex="1" parent="1">
          <mxGeometry x="620" y="420" width="60" height="80" as="geometry" />
        </mxCell>
        <mxCell id="1EWZiz0vZpaTnw2dbrHK-51" value="" style="edgeStyle=none;rounded=0;orthogonalLoop=1;jettySize=auto;html=1;" edge="1" parent="1" source="1EWZiz0vZpaTnw2dbrHK-9" target="1EWZiz0vZpaTnw2dbrHK-49">
          <mxGeometry relative="1" as="geometry" />
        </mxCell>
        <mxCell id="1EWZiz0vZpaTnw2dbrHK-9" value="MySQL" style="shape=cylinder3;whiteSpace=wrap;html=1;boundedLbl=1;backgroundOutline=1;size=15;" vertex="1" parent="1">
          <mxGeometry x="620" y="250" width="60" height="80" as="geometry" />
        </mxCell>
        <mxCell id="1EWZiz0vZpaTnw2dbrHK-50" value="" style="edgeStyle=none;rounded=0;orthogonalLoop=1;jettySize=auto;html=1;" edge="1" parent="1" source="1EWZiz0vZpaTnw2dbrHK-10" target="1EWZiz0vZpaTnw2dbrHK-49">
          <mxGeometry relative="1" as="geometry" />
        </mxCell>
        <mxCell id="1EWZiz0vZpaTnw2dbrHK-10" value="MySQL" style="shape=cylinder3;whiteSpace=wrap;html=1;boundedLbl=1;backgroundOutline=1;size=15;" vertex="1" parent="1">
          <mxGeometry x="620" y="70" width="60" height="80" as="geometry" />
        </mxCell>
        <mxCell id="1EWZiz0vZpaTnw2dbrHK-13" value="API" style="rounded=0;whiteSpace=wrap;html=1;direction=south;fontSize=17;" vertex="1" parent="1">
          <mxGeometry x="260" y="320" width="80" height="390" as="geometry" />
        </mxCell>
        <mxCell id="1EWZiz0vZpaTnw2dbrHK-33" value="" style="edgeStyle=orthogonalEdgeStyle;rounded=0;orthogonalLoop=1;jettySize=auto;html=1;" edge="1" parent="1" source="1EWZiz0vZpaTnw2dbrHK-15" target="1EWZiz0vZpaTnw2dbrHK-10">
          <mxGeometry relative="1" as="geometry" />
        </mxCell>
        <mxCell id="1EWZiz0vZpaTnw2dbrHK-15" value="User&amp;nbsp;&lt;div&gt;Microservice&lt;/div&gt;" style="whiteSpace=wrap;html=1;aspect=fixed;fontSize=14;" vertex="1" parent="1">
          <mxGeometry x="460" y="70" width="80" height="80" as="geometry" />
        </mxCell>
        <mxCell id="1EWZiz0vZpaTnw2dbrHK-32" value="" style="edgeStyle=orthogonalEdgeStyle;rounded=0;orthogonalLoop=1;jettySize=auto;html=1;" edge="1" parent="1" source="1EWZiz0vZpaTnw2dbrHK-16" target="1EWZiz0vZpaTnw2dbrHK-9">
          <mxGeometry relative="1" as="geometry" />
        </mxCell>
        <mxCell id="1EWZiz0vZpaTnw2dbrHK-16" value="Admin&amp;nbsp;&lt;div&gt;Microservice&lt;/div&gt;" style="whiteSpace=wrap;html=1;aspect=fixed;fontSize=14;" vertex="1" parent="1">
          <mxGeometry x="460" y="250" width="80" height="80" as="geometry" />
        </mxCell>
        <mxCell id="1EWZiz0vZpaTnw2dbrHK-34" value="" style="edgeStyle=orthogonalEdgeStyle;rounded=0;orthogonalLoop=1;jettySize=auto;html=1;" edge="1" parent="1" source="1EWZiz0vZpaTnw2dbrHK-17" target="1EWZiz0vZpaTnw2dbrHK-8">
          <mxGeometry relative="1" as="geometry" />
        </mxCell>
        <mxCell id="1EWZiz0vZpaTnw2dbrHK-17" value="Search&amp;nbsp;&lt;div&gt;Microservice&lt;/div&gt;" style="whiteSpace=wrap;html=1;aspect=fixed;fontSize=14;" vertex="1" parent="1">
          <mxGeometry x="460" y="420" width="80" height="80" as="geometry" />
        </mxCell>
        <mxCell id="1EWZiz0vZpaTnw2dbrHK-35" value="" style="edgeStyle=orthogonalEdgeStyle;rounded=0;orthogonalLoop=1;jettySize=auto;html=1;" edge="1" parent="1" source="1EWZiz0vZpaTnw2dbrHK-18" target="1EWZiz0vZpaTnw2dbrHK-7">
          <mxGeometry relative="1" as="geometry" />
        </mxCell>
        <mxCell id="1EWZiz0vZpaTnw2dbrHK-18" value="Booking&amp;nbsp;&lt;div&gt;Microservice&lt;/div&gt;" style="whiteSpace=wrap;html=1;aspect=fixed;fontSize=14;" vertex="1" parent="1">
          <mxGeometry x="460" y="600" width="80" height="80" as="geometry" />
        </mxCell>
        <mxCell id="1EWZiz0vZpaTnw2dbrHK-36" value="" style="edgeStyle=orthogonalEdgeStyle;rounded=0;orthogonalLoop=1;jettySize=auto;html=1;" edge="1" parent="1" source="1EWZiz0vZpaTnw2dbrHK-19" target="1EWZiz0vZpaTnw2dbrHK-6">
          <mxGeometry relative="1" as="geometry" />
        </mxCell>
        <mxCell id="1EWZiz0vZpaTnw2dbrHK-19" value="Check-in&amp;nbsp;&lt;div&gt;Microservice&lt;/div&gt;" style="whiteSpace=wrap;html=1;aspect=fixed;fontSize=14;" vertex="1" parent="1">
          <mxGeometry x="460" y="770" width="80" height="80" as="geometry" />
        </mxCell>
        <mxCell id="1EWZiz0vZpaTnw2dbrHK-37" value="" style="edgeStyle=orthogonalEdgeStyle;rounded=0;orthogonalLoop=1;jettySize=auto;html=1;" edge="1" parent="1" source="1EWZiz0vZpaTnw2dbrHK-20" target="1EWZiz0vZpaTnw2dbrHK-5">
          <mxGeometry relative="1" as="geometry" />
        </mxCell>
        <mxCell id="1EWZiz0vZpaTnw2dbrHK-20" value="Payment&lt;div&gt;Microservice&lt;/div&gt;" style="whiteSpace=wrap;html=1;aspect=fixed;fontSize=14;" vertex="1" parent="1">
          <mxGeometry x="460" y="940" width="80" height="80" as="geometry" />
        </mxCell>
        <mxCell id="1EWZiz0vZpaTnw2dbrHK-21" value="User" style="shape=umlActor;verticalLabelPosition=bottom;verticalAlign=top;html=1;outlineConnect=0;fontSize=14;" vertex="1" parent="1">
          <mxGeometry x="10" y="400" width="50" height="60" as="geometry" />
        </mxCell>
        <mxCell id="1EWZiz0vZpaTnw2dbrHK-22" value="Admin" style="shape=umlActor;verticalLabelPosition=bottom;verticalAlign=top;html=1;outlineConnect=0;fontSize=14;" vertex="1" parent="1">
          <mxGeometry x="10" y="580" width="50" height="60" as="geometry" />
        </mxCell>
        <mxCell id="1EWZiz0vZpaTnw2dbrHK-26" value="" style="endArrow=classic;html=1;rounded=0;" edge="1" parent="1">
          <mxGeometry width="50" height="50" relative="1" as="geometry">
            <mxPoint x="60" y="440" as="sourcePoint" />
            <mxPoint x="120" y="440" as="targetPoint" />
            <Array as="points" />
          </mxGeometry>
        </mxCell>
        <mxCell id="1EWZiz0vZpaTnw2dbrHK-27" value="" style="endArrow=classic;html=1;rounded=0;" edge="1" parent="1">
          <mxGeometry width="50" height="50" relative="1" as="geometry">
            <mxPoint x="60" y="610" as="sourcePoint" />
            <mxPoint x="120" y="610" as="targetPoint" />
            <Array as="points" />
          </mxGeometry>
        </mxCell>
        <mxCell id="1EWZiz0vZpaTnw2dbrHK-28" value="" style="endArrow=classic;html=1;rounded=0;" edge="1" parent="1">
          <mxGeometry width="50" height="50" relative="1" as="geometry">
            <mxPoint x="200" y="510" as="sourcePoint" />
            <mxPoint x="260" y="510" as="targetPoint" />
            <Array as="points" />
          </mxGeometry>
        </mxCell>
        <mxCell id="1EWZiz0vZpaTnw2dbrHK-39" value="" style="edgeStyle=orthogonalEdgeStyle;rounded=0;orthogonalLoop=1;jettySize=auto;html=1;" edge="1" parent="1">
          <mxGeometry relative="1" as="geometry">
            <mxPoint x="340" y="689" as="sourcePoint" />
            <mxPoint x="460" y="640" as="targetPoint" />
            <Array as="points">
              <mxPoint x="340" y="696" />
              <mxPoint x="410" y="696" />
              <mxPoint x="410" y="640" />
            </Array>
          </mxGeometry>
        </mxCell>
        <mxCell id="1EWZiz0vZpaTnw2dbrHK-40" value="" style="edgeStyle=orthogonalEdgeStyle;rounded=0;orthogonalLoop=1;jettySize=auto;html=1;entryX=0;entryY=0.5;entryDx=0;entryDy=0;exitX=1;exitY=0.5;exitDx=0;exitDy=0;" edge="1" parent="1" source="1EWZiz0vZpaTnw2dbrHK-13" target="1EWZiz0vZpaTnw2dbrHK-19">
          <mxGeometry relative="1" as="geometry">
            <mxPoint x="330" y="720" as="sourcePoint" />
            <mxPoint x="480" y="810" as="targetPoint" />
            <Array as="points">
              <mxPoint x="330" y="810" />
            </Array>
          </mxGeometry>
        </mxCell>
        <mxCell id="1EWZiz0vZpaTnw2dbrHK-42" value="" style="edgeStyle=orthogonalEdgeStyle;rounded=0;orthogonalLoop=1;jettySize=auto;html=1;entryX=0;entryY=0.5;entryDx=0;entryDy=0;" edge="1" parent="1" target="1EWZiz0vZpaTnw2dbrHK-20">
          <mxGeometry relative="1" as="geometry">
            <mxPoint x="300" y="710" as="sourcePoint" />
            <mxPoint x="335" y="1030" as="targetPoint" />
            <Array as="points">
              <mxPoint x="300" y="980" />
            </Array>
          </mxGeometry>
        </mxCell>
        <mxCell id="1EWZiz0vZpaTnw2dbrHK-30" value="" style="edgeStyle=orthogonalEdgeStyle;rounded=0;orthogonalLoop=1;jettySize=auto;html=1;exitX=0.5;exitY=0;exitDx=0;exitDy=0;" edge="1" parent="1" source="1EWZiz0vZpaTnw2dbrHK-13" target="1EWZiz0vZpaTnw2dbrHK-17">
          <mxGeometry relative="1" as="geometry">
            <mxPoint x="380" y="516" as="sourcePoint" />
          </mxGeometry>
        </mxCell>
        <mxCell id="1EWZiz0vZpaTnw2dbrHK-45" value="" style="edgeStyle=orthogonalEdgeStyle;rounded=0;orthogonalLoop=1;jettySize=auto;html=1;" edge="1" parent="1">
          <mxGeometry relative="1" as="geometry">
            <mxPoint x="360" y="365" as="sourcePoint" />
            <mxPoint x="460" y="310" as="targetPoint" />
            <Array as="points">
              <mxPoint x="420" y="364.56" />
              <mxPoint x="420" y="309.56" />
            </Array>
          </mxGeometry>
        </mxCell>
        <mxCell id="1EWZiz0vZpaTnw2dbrHK-47" value="" style="rounded=0;orthogonalLoop=1;jettySize=auto;html=1;exitX=0;exitY=0.5;exitDx=0;exitDy=0;entryX=0;entryY=0.5;entryDx=0;entryDy=0;edgeStyle=orthogonalEdgeStyle;" edge="1" parent="1" source="1EWZiz0vZpaTnw2dbrHK-13" target="1EWZiz0vZpaTnw2dbrHK-15">
          <mxGeometry relative="1" as="geometry">
            <mxPoint x="300" y="320" as="sourcePoint" />
            <mxPoint x="380" y="100" as="targetPoint" />
          </mxGeometry>
        </mxCell>
        <mxCell id="1EWZiz0vZpaTnw2dbrHK-49" value="E&lt;div&gt;U&lt;/div&gt;&lt;div&gt;R&lt;/div&gt;&lt;div&gt;E&lt;/div&gt;&lt;div&gt;K&lt;/div&gt;&lt;div&gt;A&lt;/div&gt;&lt;div&gt;&lt;br&gt;&lt;/div&gt;&lt;div&gt;S&lt;/div&gt;&lt;div&gt;E&lt;/div&gt;&lt;div&gt;R&lt;/div&gt;&lt;div&gt;V&lt;/div&gt;&lt;div&gt;E&lt;/div&gt;&lt;div&gt;R&lt;/div&gt;" style="rounded=0;whiteSpace=wrap;html=1;fontSize=15;" vertex="1" parent="1">
          <mxGeometry x="770" y="120" width="60" height="860" as="geometry" />
        </mxCell>
      </root>
    </mxGraphModel>
  </diagram>
</mxfile>
